<?xml version="1.0" encoding="UTF-8"?>
<svg id="Logo" xmlns="http://www.w3.org/2000/svg" viewBox="0 0 261.56 261.56">
  <defs>
    <style>
      .cls-1 {
        fill: #1d1d1b;
      }

      .cls-2 {
        fill: #fff;
        stroke: #fff;
        stroke-miterlimit: 10;
      }
    </style>
  </defs>
  <rect class="cls-2" x=".5" y=".5" width="260.56" height="260.56"/>
  <g>
    <polygon class="cls-1" points="157.79 186.26 117.62 186.25 104.64 186.25 91.87 215.26 144.81 215.26 144.81 215.25 170.56 215.26 157.79 186.26"/>
    <polygon class="cls-1" points="226.57 36.15 160.52 102.44 172.89 130.78 194.67 113.5 194.67 186.25 131.22 42.08 67.76 186.25 67.94 113.5 89.54 130.8 101.9 102.46 35.86 36.16 35.87 215.26 89.06 215.26 102.67 184.35 131.22 119.5 157.65 179.55 157.65 179.55 173.37 215.25 207.43 215.25 207.43 215.25 226.57 215.25 226.57 36.15"/>
  </g>
</svg>