<?xml version="1.0" encoding="UTF-8" standalone="no"?>
<svg
   id="Logo"
   viewBox="0 0 261.56 261.56"
   version="1.1"
   sodipodi:docname="MA_FILMS_Logo_2.2.svg"
   inkscape:export-filename="MA_FILMS_Logo_2.2.png"
   inkscape:export-xdpi="96"
   inkscape:export-ydpi="96"
   inkscape:version="1.2.2 (b0a84865, 2022-12-01)"
   xmlns:inkscape="http://www.inkscape.org/namespaces/inkscape"
   xmlns:sodipodi="http://sodipodi.sourceforge.net/DTD/sodipodi-0.dtd"
   xmlns="http://www.w3.org/2000/svg"
   xmlns:svg="http://www.w3.org/2000/svg">
  <sodipodi:namedview
     id="namedview15"
     pagecolor="#ffffff"
     bordercolor="#000000"
     borderopacity="0.25"
     inkscape:showpageshadow="2"
     inkscape:pageopacity="0.0"
     inkscape:pagecheckerboard="0"
     inkscape:deskcolor="#d1d1d1"
     showgrid="false"
     inkscape:zoom="0.90227864"
     inkscape:cx="155.16271"
     inkscape:cy="145.74212"
     inkscape:window-width="1357"
     inkscape:window-height="753"
     inkscape:window-x="40"
     inkscape:window-y="15"
     inkscape:window-maximized="0"
     inkscape:current-layer="Logo" />
  <defs
     id="defs4">
    <style
       id="style2">
      .cls-1 {
        fill: #1d1d1b;
      }

      .cls-2 {
        fill: #fff;
        stroke: #fff;
        stroke-miterlimit: 10;
      }
    </style>
  </defs>
  <g
     id="g12">
    <polygon
       class="cls-1"
       points="157.79 186.26 117.62 186.25 104.64 186.25 91.87 215.26 144.81 215.26 144.81 215.25 170.56 215.26 157.79 186.26"
       id="polygon8" />
    <polygon
       class="cls-1"
       points="226.57 36.15 160.52 102.44 172.89 130.78 194.67 113.5 194.67 186.25 131.22 42.08 67.76 186.25 67.94 113.5 89.54 130.8 101.9 102.46 35.86 36.16 35.87 215.26 89.06 215.26 102.67 184.35 131.22 119.5 157.65 179.55 157.65 179.55 173.37 215.25 207.43 215.25 207.43 215.25 226.57 215.25 226.57 36.15"
       id="polygon10" />
  </g>
</svg>
