<?xml version="1.0" encoding="UTF-8"?>
<svg id="Logo" xmlns="http://www.w3.org/2000/svg" viewBox="0 0 263.13 263.13">
  <defs>
    <style>
      .cls-1 {
        fill: #f2f2f2;
      }

      .cls-2 {
        fill: #1b1b1b;
        stroke: #1b1b1b;
        stroke-miterlimit: 10;
      }
    </style>
  </defs>
  <rect class="cls-2" x=".5" y=".5" width="262.13" height="262.13"/>
  <g>
    <polygon class="cls-1" points="158.14 187.04 117.97 187.04 104.99 187.04 92.21 216.04 145.16 216.04 145.16 216.04 170.91 216.04 158.14 187.04"/>
    <polygon class="cls-1" points="226.92 36.94 160.87 103.23 173.24 131.56 195.02 114.28 195.02 187.04 131.56 42.87 68.11 187.03 68.29 114.28 89.89 131.59 102.25 103.25 36.21 36.94 36.21 216.04 89.41 216.04 103.02 185.14 131.56 120.29 157.99 180.34 157.99 180.34 173.72 216.04 207.78 216.04 207.78 216.04 226.92 216.04 226.92 36.94"/>
  </g>
</svg>