<?xml version="1.0" encoding="UTF-8"?>
<svg id="Logo" xmlns="http://www.w3.org/2000/svg" viewBox="0 0 262.3 262.3">
  <defs>
    <style>
      .cls-1 {
        fill: #1d1d1b;
      }

      .cls-2 {
        fill: #fff;
        stroke: #1d1d1b;
        stroke-miterlimit: 10;
      }
    </style>
  </defs>
  <rect class="cls-2" x=".5" y=".5" width="261.3" height="261.3"/>
  <g>
    <polygon class="cls-1" points="157.87 186.63 117.7 186.63 104.72 186.63 91.95 215.63 144.89 215.63 144.89 215.63 170.64 215.63 157.87 186.63"/>
    <polygon class="cls-1" points="226.65 36.53 160.6 102.81 172.97 131.15 194.75 113.87 194.75 186.63 131.29 42.46 67.84 186.62 68.02 113.87 89.62 131.17 101.98 102.83 35.94 36.53 35.94 215.63 89.14 215.63 102.75 184.72 131.29 119.87 157.72 179.92 157.72 179.92 173.45 215.63 207.51 215.63 207.51 215.63 226.65 215.63 226.65 36.53"/>
  </g>
</svg>