<?xml version="1.0" encoding="UTF-8"?>
<svg id="Logo" xmlns="http://www.w3.org/2000/svg" viewBox="0 0 329.82 329.82">
  <defs>
    <style>
      .cls-1 {
        fill: #1d1d1b;
      }

      .cls-2 {
        fill: #fff;
        stroke: #fff;
        stroke-miterlimit: 10;
      }
    </style>
  </defs>
  <rect class="cls-2" x=".5" y=".5" width="328.82" height="328.82"/>
  <g id="Typo">
    <g>
      <path class="cls-1" d="m72.04,248.77v10.7h11.6v1.89h-11.6v13.41h-2.3v-27.88h15.54v1.89h-13.24Z"/>
      <path class="cls-1" d="m111.93,246.88h2.3v27.88h-2.3v-27.88Z"/>
      <path class="cls-1" d="m160.92,272.87v1.89h-16.36v-27.88h2.3v25.99h14.06Z"/>
      <path class="cls-1" d="m213.32,246.88v27.88h-2.3v-23.66l-9.72,13.74h-1.31l-9.72-13.74v23.66h-2.3v-27.88h1.89l10.78,15.25,10.78-15.25h1.89Z"/>
      <path class="cls-1" d="m245.34,274.76c-1.45-.46-2.83-1.2-4.14-2.21l1.27-1.8c1.99,1.86,4.77,2.79,8.32,2.79,2.05,0,3.73-.53,5.04-1.6,1.31-1.07,1.97-2.53,1.97-4.39,0-1.09-.32-2-.94-2.73-.63-.72-1.4-1.3-2.32-1.72-.92-.42-2.17-.92-3.75-1.5-1.8-.63-3.27-1.22-4.39-1.76-1.12-.55-2.07-1.33-2.85-2.34-.78-1.01-1.17-2.3-1.17-3.85,0-2.38.79-4.2,2.38-5.45,1.58-1.26,3.58-1.89,5.99-1.89,1.78,0,3.36.24,4.74.72s2.7,1.21,3.96,2.19l-1.23,1.76c-1.04-.9-2.19-1.58-3.46-2.05-1.27-.46-2.6-.7-4-.7-1.75,0-3.21.45-4.37,1.35-1.16.9-1.74,2.24-1.74,4.02,0,1.09.31,2,.94,2.73.63.72,1.4,1.3,2.32,1.72s2.17.91,3.75,1.46c1.86.66,3.34,1.26,4.45,1.8,1.11.55,2.05,1.33,2.83,2.34.78,1.01,1.17,2.31,1.17,3.9s-.41,2.98-1.23,4.18c-.82,1.2-1.93,2.13-3.34,2.77-1.41.64-2.99.96-4.74.96-2.19,0-4-.23-5.45-.7Z"/>
    </g>
    <text/>
  </g>
  <g>
    <polygon class="cls-1" points="191.63 205 151.46 205 138.48 205 125.7 234.01 178.65 234.01 178.65 234 204.4 234 191.63 205"/>
    <polygon class="cls-1" points="260.41 54.9 194.36 121.19 206.73 149.53 228.51 132.24 228.51 205 165.05 60.83 101.6 204.99 101.78 132.24 123.37 149.55 135.74 121.21 69.7 54.9 69.7 234.01 122.9 234.01 136.51 203.1 165.05 138.25 191.48 198.3 191.48 198.3 207.21 234 241.27 234 241.27 234 260.4 234 260.41 54.9"/>
  </g>
</svg>